<?xml version="1.0" encoding="utf-8"?>
<!-- Generator: Adobe Illustrator 24.2.3, SVG Export Plug-In . SVG Version: 6.00 Build 0)  -->
<svg version="1.2" baseProfile="tiny" id="Layer_1" xmlns="http://www.w3.org/2000/svg" xmlns:xlink="http://www.w3.org/1999/xlink"
	 x="0px" y="0px" viewBox="0 0 250 250" overflow="visible" xml:space="preserve">
<path fill="#D3FF33" d="M125,250L125,250C55.96,250,0,194.04,0,125v0C0,55.96,55.96,0,125,0h0c69.04,0,125,55.96,125,125v0
	C250,194.04,194.04,250,125,250z"/>
<circle display="none" fill="#D3FF33" cx="125" cy="125" r="125"/>
<g>
	<polygon fill="#161827" points="125,157.8 179.31,157.8 179.31,103.48 179.31,49.17 125,49.17 70.69,49.17 70.69,103.48 
		125,103.48 	"/>
	<path fill="#161827" d="M70.69,157.8v13.76c0,22.39,18.15,40.55,40.55,40.55H125V157.8H70.69z"/>
</g>
</svg>
